<?xml version="1.0" encoding="UTF-8" standalone="no"?> <svg xmlns:dc="http://purl.org/dc/elements/1.1/" xmlns:cc="http://creativecommons.org/ns#" xmlns:rdf="http://www.w3.org/1999/02/22-rdf-syntax-ns#" xmlns:svg="http://www.w3.org/2000/svg" xmlns="http://www.w3.org/2000/svg" xmlns:sodipodi="http://sodipodi.sourceforge.net/DTD/sodipodi-0.dtd" xmlns:inkscape="http://www.inkscape.org/namespaces/inkscape" id="svg8" version="1.1" viewBox="0 0 204.95178 238.89323" height="238.89323mm" width="204.95178mm"><defs id="defs2"><clipPath id="clipPath13993"><path d="M 0,800 H 800 V 0 H 0 Z" id="path13991"></path></clipPath><clipPath id="clipPath13993-3"><path d="M 0,800 H 800 V 0 H 0 Z" id="path13991-8"></path></clipPath><clipPath id="clipPath13993-8"><path d="M 0,800 H 800 V 0 H 0 Z" id="path13991-4"></path></clipPath></defs><metadata id="metadata5"></metadata><g transform="translate(-2.6014904,-33.255764)" id="layer1"><g transform="matrix(0.26458333,0,0,0.26458333,118.18244,133.60266)" id="g5407"><path class="st0" d="M -49.532662,520.36723 C -275.82877,421.75084 -433.84139,222.89405 -433.84139,-41.755164 l 1.94741,-250.893426 c 0,0 162.81581,-81.19285 382.361318,-83.61509 v 0 c 219.552382,2.42224 382.357862,83.61509 382.357862,83.61509 l 1.95431,250.893426 C 334.78294,222.89405 176.77376,421.75084 -49.532662,520.36723 Z" id="path9" style="fill:#ffeb3b;fill-opacity:1;stroke:#000000;stroke-width:6;stroke-miterlimit:4;stroke-dasharray:none;stroke-opacity:1"></path><path class="st2" d="M -49.532662,487.77035 C -273.52008,387.38201 -402.68616,189.843 -402.68616,-42.563723 l 1.8098,-228.460267 c 46.3561,-19.73911 182.10417,-70.71259 351.343698,-72.64281 169.239512,1.93022 304.991022,52.9037 351.347132,72.64625 l 1.8098,228.460268 C 303.6277,189.843 174.45475,387.38201 -49.532662,487.77035 Z" id="path11" style="fill:#4285f4;fill-opacity:1;stroke:#000000;stroke-width:6;stroke-miterlimit:4;stroke-dasharray:none;stroke-opacity:1"></path><path style="fill:#ffffff;fill-opacity:1;stroke:#000000;stroke-width:6;stroke-miterlimit:4;stroke-dasharray:none;stroke-opacity:1" d="M 285.27539,-49.378906 283.57227,-189.82422 C 238.26012,-208.17124 147.5131,-239.56028 33.042969,-251.5918 v 202.212894 z" id="path9845"></path><path style="fill:#ffffff;fill-opacity:1;stroke:#000000;stroke-width:6;stroke-miterlimit:4;stroke-dasharray:none;stroke-opacity:1" d="M 33.042969,419.09961 C 148.30424,343.90271 227.8652,235.7827 263.71484,109.86523 H 33.042969 Z" id="path9843"></path><path style="fill:#ffffff;fill-opacity:1;stroke:#000000;stroke-width:6;stroke-miterlimit:4;stroke-dasharray:none;stroke-opacity:1" d="m -362.76758,109.86523 c 36.18601,127.08935 116.88623,236.06826 233.90235,311.34961 V 109.86523 Z" id="path9841"></path><path style="fill:#ffffff;fill-opacity:1;stroke:#000000;stroke-width:6;stroke-miterlimit:4;stroke-dasharray:none;stroke-opacity:1" d="m -128.86523,-251.86523 c -116.09966,11.79157 -208.06265,43.51738 -253.75196,62.02734 l -1.71289,140.458984 h 255.46485 z" id="path9839"></path><path style="fill:#db4437;fill-opacity:1;stroke:#000000;stroke-width:6;stroke-miterlimit:4;stroke-dasharray:none;stroke-opacity:1" d="m -128.86523,-251.86523 v 202.486324 h -255.46485 l -0.0273,2.296875 c 0,54.4753504 7.39498,107.0933 21.58984,156.947261 h 233.90235 v 311.34961 c 24.85126,15.98786 51.291271,30.50096 79.339839,43.29688 29.27338,-13.35322 56.7812208,-28.58848 82.56836,-45.41211 V 109.86523 H 263.71484 C 277.90848,60.01184 285.30273,7.3938639 285.30273,-47.082031 l -0.0273,-2.296875 H 33.042969 V -251.5918 c -26.2882947,-2.76306 -53.823353,-4.50757 -82.351563,-4.83593 -27.540545,0.31548 -54.107636,1.97779 -79.556636,4.5625 z" id="path13"></path><path id="path5211" d="m -385.46674,-207.49755 c 224.21256,-86.76359 445.354129,-87.53873 663.42388,-2.30355" style="fill:none;stroke:none;stroke-width:0.860167;stroke-linejoin:round"></path><g style="stroke:#ffffff;stroke-width:0.0922408;stroke-linejoin:round" transform="matrix(-4.1723598,-4.4366674,-4.4366674,4.1723598,1351.0467,260.29504)" id="g5135"></g><path id="path5211-6" d="m -118.17314,-204.78169 c 146.434682,-56.66588 290.86369,-57.17212 433.28645,-1.50447" style="fill:none;stroke:none;stroke-width:0.56178;stroke-linejoin:round"></path><path d="m -260.34994,157.34495 c 0,16.37357 14.52089,16.37357 14.52089,0 l 7.26044,-322.79336 c 0,-18.71266 -29.04179,-18.71266 -29.04179,0 l 7.26046,315.77611 z" id="rod" style="fill:#ffeb3b;fill-opacity:1;fill-rule:evenodd;stroke:#000000;stroke-width:4.75885;stroke-miterlimit:4;stroke-dasharray:none;stroke-opacity:1"></path><g transform="matrix(2.4201492,0,0,2.3390822,-485.42383,-230.94271)" style="fill:#ffffff;fill-rule:evenodd;stroke:#3333bb;stroke-width:2.00013;stroke-miterlimit:4;stroke-dasharray:none" id="snake"><path d="m 100,153 c 7,4 3,15 -3,15 2,-5 3,-9 3,-15 z m 1,-40 c 10,9 4,22 -3,26 -6,3 -6,7 -6,15 -9,-10 -4,-19 4,-24 5,-4 5,-10 5,-17 z m 1,-30 c 0,11 -17,14 -17,22 0,3 1,9 6,12 0,-11 9,-12 15,-18 7,-7 7,-19 -4,-28 z M 90.766604,77 C 80.766604,69 76,55 80,46 c 3,-10 20,-11 20,-3 0,8 -12.333963,4.073245 -9.473623,14.466793 L 90.766604,64 Z" id="body" style="fill:#0f9d58;fill-opacity:1;stroke:#000000;stroke-width:2.00013;stroke-miterlimit:4;stroke-dasharray:none;stroke-opacity:1"></path><path d="m 95,43 c 7,-3 -7,-3 0,0 z" id="eye" style="fill:#042a17;fill-opacity:1;fill-rule:evenodd;stroke:none;stroke-width:2.00013;stroke-miterlimit:4;stroke-dasharray:none"></path></g><circle style="fill:#ffffff;fill-opacity:1;fill-rule:evenodd;stroke:#ffffff;stroke-width:4.53094;stroke-miterlimit:4;stroke-dasharray:none;stroke-opacity:1" id="path10497" cx="134.66223" cy="-79.419518" r="3.5750146"></circle><g transform="translate(0,72)" style="font-style:normal;font-weight:normal;font-size:40px;line-height:0%;font-family:sans-serif;letter-spacing:0px;word-spacing:0px;fill:#000000;fill-opacity:1;stroke:none;stroke-width:1px;stroke-linecap:butt;stroke-linejoin:miter;stroke-opacity:1" id="flowRoot10499"><path d="m -167.98524,-384.95439 c 6.7517,-1.58226 13.5274,-2.98391 20.31976,-4.21468 6.55403,8.23082 12.78366,16.60966 18.70776,25.11656 l -2.43842,-16.83462 c -0.20896,-1.44266 -0.42158,-2.33153 -0.63928,-2.66836 -0.31444,-0.50649 -0.68775,-0.83156 -1.11958,-0.97484 -0.43459,-0.16559 -1.23298,-0.16268 -2.39112,0.0154 -0.80382,0.1236 -1.60741,0.24955 -2.41076,0.37787 l -1.03898,-6.50952 c 6.91323,-1.1045 13.84044,-2.03689 20.77397,-2.80735 l 0.724,6.55463 c -0.75911,0.0842 -1.51809,0.17041 -2.27694,0.25858 -1.13808,0.13223 -1.94179,0.35605 -2.40864,0.66516 -0.44352,0.30647 -0.73293,0.68661 -0.86876,1.13952 -0.13595,0.45332 -0.11476,1.391 0.0625,2.81522 l 4.55252,36.57969 c -3.07947,0.38132 -6.15073,0.799 -9.21284,1.25429 -7.25192,-10.75467 -14.9864,-21.30764 -23.24165,-31.61846 l 4.72564,24.10097 c 0.27159,1.38511 0.52066,2.25368 0.74557,2.60369 0.24671,0.34619 0.59613,0.59111 1.04802,0.73569 0.47386,0.14056 1.22535,0.11152 2.25893,-0.0815 0.72119,-0.13471 1.44291,-0.26724 2.16515,-0.3976 l 1.16985,6.48732 c -6.12979,1.10682 -12.21761,2.37295 -18.25566,3.80874 l -1.51509,-6.42038 c 0.63798,-0.15136 1.27647,-0.30088 1.91544,-0.44856 1.0654,-0.24624 1.76965,-0.4974 2.11481,-0.76184 0.36097,-0.29102 0.60785,-0.69585 0.74067,-1.21514 0.13275,-0.51904 0.0975,-1.24638 -0.10733,-2.18069 l -5.85366,-26.70061 c -0.22444,-1.02374 -0.50407,-1.74329 -0.84085,-2.15942 -0.34151,-0.43814 -0.7339,-0.71331 -1.17684,-0.82503 -0.44755,-0.13386 -1.14139,-0.0963 -2.07849,0.1168 -0.87867,0.19986 -1.75687,0.40281 -2.6346,0.60888 -0.50503,-2.14013 -1.01006,-4.28025 -1.51509,-6.42038 z" style="font-size:70px" id="path10510"></path><path d="m -100.88576,-359.42965 c 1.716173,-0.13397 3.22444,0.38697 4.509537,1.55589 1.305868,1.14479 2.007931,2.59725 2.120423,4.34867 0.112503,1.75159 -0.395832,3.29041 -1.506999,4.62161 -1.091485,1.30762 -2.46356,2.02157 -4.128936,2.15089 -1.686985,0.13098 -3.173225,-0.36073 -4.474905,-1.48138 -1.28189,-1.14515 -2.01132,-2.58663 -2.17387,-4.33346 -0.16253,-1.74671 0.29105,-3.28824 1.37894,-4.62012 1.10745,-1.35582 2.53739,-2.10639 4.27581,-2.2421 z" style="font-size:70px" id="path10512"></path><path d="m -88.304769,-395.80294 c 6.827423,-0.32086 13.650264,-0.49898 20.461198,-0.54408 4.976868,9.24666 9.692424,18.56281 14.16554,27.92851 l 0.33779,-17.02139 c 0.02895,-1.45858 -0.03533,-2.37122 -0.193639,-2.7394 -0.225498,-0.55163 -0.537682,-0.93388 -0.936362,-1.14639 -0.39788,-0.23507 -1.178081,-0.36355 -2.33853,-0.37986 -0.805386,-0.0113 -1.610954,-0.0208 -2.416691,-0.0285 l 0.05972,-6.59909 c 3.355038,0.0327 6.70642,0.0967 10.053265,0.19101 3.536386,0.0989 7.065622,0.22756 10.587746,0.38366 l -0.28877,6.58814 c -0.753254,-0.0333 -1.50677,-0.0653 -2.260547,-0.096 -1.130563,-0.046 -1.948953,0.0489 -2.452584,0.28092 -0.480327,0.23306 -0.822007,0.56287 -1.02527,0.98882 -0.203392,0.42622 -0.329227,1.35597 -0.378482,2.79068 l -1.26515,36.85167 c -1.400228,-0.0469 -2.799756,-0.0884 -4.198586,-0.12447 -1.75281,-0.0447 -3.505214,-0.0811 -5.257049,-0.10876 -5.483031,-11.80338 -11.347781,-23.53074 -17.632465,-35.14164 l 0.431554,24.58632 c 0.0248,1.4131 0.118704,2.31279 0.280748,2.69737 0.184398,0.38452 0.489199,0.68721 0.914128,0.90873 0.447424,0.22134 1.202146,0.324 2.266768,0.31258 0.742903,-0.008 1.485935,-0.0143 2.229085,-0.019 l 0.04011,6.60032 c -6.336655,0.0404 -12.661135,0.20062 -18.96564,0.49101 l -0.306847,-6.5926 c 0.662885,-0.0306 1.325948,-0.0598 1.98918,-0.0876 1.105755,-0.0463 1.853385,-0.16518 2.245426,-0.36244 0.412838,-0.2206 0.732822,-0.57417 0.960044,-1.06119 0.22714,-0.48683 0.324951,-1.20906 0.292043,-2.1659 l -0.940382,-27.34281 c -0.03605,-1.04832 -0.180315,-1.80722 -0.434145,-2.27755 -0.254528,-0.49291 -0.587518,-0.83457 -0.998799,-1.0246 -0.411876,-0.21268 -1.093863,-0.30118 -2.044229,-0.26184 -0.891075,0.0369 -1.78219,0.0762 -2.673328,0.11798 -0.102282,-2.19753 -0.204564,-4.39507 -0.306847,-6.5926 z" style="font-size:70px" id="path10514"></path><path d="m -26.481645,-359.55222 c 1.733085,0.11222 3.165949,0.83914 4.289611,2.17482 1.147804,1.31464 1.652914,2.84863 1.524336,4.59776 -0.128592,1.74933 -0.852335,3.20258 -2.16039,4.36519 -1.284578,1.14174 -2.773373,1.65509 -4.47432,1.54488 -1.723015,-0.11164 -3.152297,-0.81386 -4.298245,-2.11239 -1.122443,-1.31993 -1.640028,-2.8532 -1.543129,-4.60432 0.0969,-1.75103 0.781161,-3.20796 2.064292,-4.36581 1.306473,-1.1789 2.842285,-1.7138 4.597845,-1.60013 z" style="font-size:70px" id="path10516"></path><path d="m 8.5940624,-392.19734 c 3.6546456,0.37587 7.3015256,0.77064 10.9406826,1.18155 3.489922,12.74562 6.817344,25.50614 10.033012,38.27571 0.525818,2.04097 1.051197,3.32413 1.580169,3.85017 0.551392,0.52876 1.627456,0.88234 3.229836,1.06386 l -0.835634,6.54626 c -7.405429,-0.94502 -14.790606,-1.84001 -22.155919,-2.65917 l 0.726601,-6.55789 c 0.450296,0.0386 0.900651,0.0774 1.351065,0.1165 1.23525,0.13872 2.117815,0.0792 2.648661,-0.18127 0.533261,-0.28304 0.827582,-0.66203 0.882229,-1.13758 0.0468,-0.40723 -0.07048,-1.27041 -0.353757,-2.58726 -0.297742,-1.4909 -0.597136,-2.9817 -0.898239,-4.47238 -4.80832,-0.54482 -9.6155593,-1.05959 -14.4218235,-1.53739 -0.7467033,1.54008 -1.49041494,3.08096 -2.23103298,4.62265 -0.45919452,0.98506 -0.70347292,1.63734 -0.73416052,1.95452 -0.035107,0.36286 0.056529,0.70366 0.2745697,1.02253 0.2404801,0.32107 0.64534476,0.5781 1.21469598,0.77179 0.37348298,0.12886 1.41954232,0.27733 3.14727572,0.454 l -0.6687885,6.56286 c -6.0128722,-0.6157 -12.012554,-1.17353 -17.9992589,-1.65934 l 0.53095,-6.5731 c 1.163039,0.0942 2.020931,0.0635 2.575463,-0.0956 0.55424,-0.159 1.016887,-0.4281 1.388009,-0.80777 0.393562,-0.37778 0.8513,-1.10409 1.3751743,-2.17889 5.9292323,-12.04788 12.0808307,-24.03679 18.4002201,-35.97473 z m -4.1072813,25.38365 c 3.1772129,0.32365 6.3534709,0.66269 9.5288029,1.01517 -1.065149,-4.52102 -2.148441,-9.04048 -3.25178,-13.55818 -2.1122709,4.17539 -4.2053117,8.3563 -6.2770229,12.54301 z" style="font-size:70px" id="path10518"></path><path d="m 50.873067,-354.78444 c 2.243347,0.303 4.043267,1.36206 5.396415,3.17377 1.386407,1.78688 1.923887,3.79797 1.615603,6.03262 -0.308317,2.23489 -1.372158,4.04 -3.187254,5.4186 -1.782088,1.35353 -3.786896,1.87925 -6.016199,1.57896 -2.25836,-0.3042 -4.075975,-1.34466 -5.459527,-3.12428 -1.350443,-1.80443 -1.880957,-3.82523 -1.586537,-6.06245 0.294443,-2.23739 1.328542,-4.03806 3.10793,-5.39853 1.812361,-1.38567 3.857105,-1.92562 6.129569,-1.61869 z" style="font-style:normal;font-variant:normal;font-weight:600;font-stretch:normal;font-size:90px;font-family:'Bookman Old Style';-inkscape-font-specification:'Bookman Old Style Semi-Bold';text-align:center;text-anchor:middle" id="path10520"></path></g><path id="path5184" d="m 105.45173,-96.966883 c -1.6871,4.896783 -2.42609,10.343103 -1.61528,16.234994 l 6.04236,1.481097 c -1.42316,-6.666613 -0.54262,-12.510089 1.61532,-17.716091 z m 39.24563,60.041039 c -0.0133,2.419103 -0.0422,4.797486 -0.0599,7.291515 7.96486,6.816276 14.43814,13.349937 19.50316,19.538978 -0.0281,-3.041638 -0.0349,-5.714039 -0.0599,-8.715633 -5.35788,-5.848839 -11.77596,-11.898134 -19.38351,-18.11486 z m 20.1014,85.56134 c -6.36748,3.619489 -14.56605,5.95154 -23.99009,6.607935 -0.53516,0.03741 -1.0286,0.12688 -1.55547,0.170799 l 4.36729,3.588808 c -0.005,0.395636 0.005,0.957555 0,1.424118 8.9388,-0.884701 16.90915,-3.190952 23.51146,-6.83579 l -2.27337,-1.879855 c -0.0119,-0.886785 -0.0481,-2.167888 -0.0599,-3.076093 z" style="color:#000000;font-style:normal;font-variant:normal;font-weight:normal;font-stretch:normal;font-size:medium;line-height:normal;font-family:'Bitstream Vera Sans';-inkscape-font-specification:'Bitstream Vera Sans';text-indent:0;text-align:start;text-decoration:none;text-decoration-line:none;letter-spacing:normal;word-spacing:normal;text-transform:none;writing-mode:lr-tb;direction:ltr;text-anchor:start;display:inline;overflow:visible;visibility:visible;fill:#050201;fill-opacity:1;stroke:#000000;stroke-width:5.60435;stroke-miterlimit:4;stroke-dasharray:none;stroke-opacity:1;marker:none;enable-background:accumulate"></path><path id="path5139" d="m 135.4842,-127.89885 c 0,0 -17.87046,8.29711 -26.98137,24.15313 -4.55545,7.928024 -6.83428,17.901575 -3.29039,29.223019 3.54387,11.321432 12.70292,23.834542 30.39141,37.482935 34.41543,26.554806 45.84503,49.385351 43.91203,65.053958 -0.9665,7.834302 -5.10188,14.122844 -11.78566,18.79843 -6.6838,4.675584 -15.98589,7.669124 -26.92155,8.430809 -33.20845,2.313055 -50.433539,17.80812 -56.415551,34.805577 -5.982025,16.997462 -1.479045,35.136092 8.49524,43.578202 l 3.828836,-4.10148 C 89.326867,123.27065 84.552087,106.83232 89.837238,91.814913 95.1224,76.797548 109.69832,62.851181 141.22745,60.655103 c 11.78747,-0.821019 22.07753,-4.016894 29.85301,-9.456181 7.77548,-5.439289 12.96714,-13.222571 14.11884,-22.558115 2.30344,-18.6710913 -10.83033,-42.811618 -46.00592,-69.952951 -17.10702,-13.19971 -25.3792,-24.852297 -28.47699,-34.74861 -3.0978,-9.896302 -1.17494,-18.126307 2.8118,-25.064576 7.97349,-13.87652 24.52852,-21.87453 24.52852,-21.87453 z" style="color:#000000;font-style:normal;font-variant:normal;font-weight:normal;font-stretch:normal;font-size:medium;line-height:normal;font-family:'Bitstream Vera Sans';-inkscape-font-specification:'Bitstream Vera Sans';text-indent:0;text-align:start;text-decoration:none;text-decoration-line:none;letter-spacing:normal;word-spacing:normal;text-transform:none;writing-mode:lr-tb;direction:ltr;text-anchor:start;display:inline;overflow:visible;visibility:visible;fill:#050201;fill-opacity:1;stroke:#000000;stroke-width:1.77559;stroke-miterlimit:4;stroke-dasharray:none;stroke-opacity:1;marker:none;enable-background:accumulate"></path><g id="Ankare-tross" style="fill:#050201;fill-opacity:1;stroke:#000000;stroke-width:0.700259;stroke-miterlimit:4;stroke-dasharray:none;stroke-opacity:1" transform="matrix(0.97636436,0,0,0.92967732,3.1396866,-129.48861)"><path id="Ankare" style="fill:#050201;fill-opacity:1;fill-rule:evenodd;stroke:#000000;stroke-width:0.700259;stroke-miterlimit:4;stroke-dasharray:none;stroke-opacity:1" d="m 147.39982,-41.802177 c -13.75625,3.1e-5 -34.93018,10.75663 -34.92604,23.96875 -0.003,9.9090894 16.87188,18.36775041 25.80104,22.0000004 V 21.541573 H 88.181074 c -2.940892,3e-6 -2.64594,15.37453 -0.4375,15.4375 L 137.52482,49.58936 c 0.44981,36.442755 -0.78239,113.70693 -1.1875,150.14562 -0.10084,13.29624 -0.57647,26.01778 -1.09375,28.3125 -1.94968,8.6491 -7.40631,9.79588 -24.21875,5.1875 -17.484408,-4.79254 -39.219766,-15.39009 -42.874996,-20.96875 -2.9059,-4.43501 -3.38137,-8.27309 -1.28125,-10.59375 1.047029,-1.15697 2.613,-1.85961 3.46875,-1.53125 0.94617,0.36302 1.9334,-0.37704 2.53125,-1.96875 2.104551,-5.6031 -4.91453,-13.92946 -18.75,-22.15625 -3.36276,-1.99962 -8.85596,-6.25111 -12.21875,-9.5 -3.52836,-3.40884 -6.59471,-5.58482 -7.3125,-5.125 -2.23339,1.43068 -6.84592,11.76686 -8.25,18.5625 -2.82263,13.66114 0.78304,33.84165 7.4375,41.75 3.51275,4.17465 5.49364,4.18796 6.3125,0.0937 1.44278,-7.21397 10.40593,-5.12774 20.1875,4.6875 7.74149,7.76811 22.45473,19.01237 28.875,22.0625 2.44564,1.16188 5.94701,3.04054 7.78125,4.1875 1.83421,1.14694 7.327436,3.45209 12.218746,5.125 10.24723,3.50487 26.2485,9.71756 31,13.96875 1.80508,1.61496 4.72828,5.5 7.25,5.5 2.28075,0 5.41367,-3.88504 7.21875,-5.5 4.7515,-4.25119 20.72153,-10.46388 30.96875,-13.96875 4.89131,-1.67291 10.41579,-3.97806 12.25,-5.125 1.83424,-1.14696 5.33562,-3.02562 7.78125,-4.1875 6.42027,-3.05013 21.13351,-14.29439 28.875,-22.0625 9.78157,-9.81524 18.74471,-11.90147 20.1875,-4.6875 0.81886,4.09421 2.79975,4.0809 6.3125,-0.0937 6.65446,-7.90835 10.26013,-28.08886 7.4375,-41.75 -1.40408,-6.79564 -6.01661,-17.13182 -8.25,-18.5625 -0.71779,-0.45982 -3.78415,1.71616 -7.3125,5.125 -3.36279,3.24889 -8.85599,7.50038 -12.21875,9.5 -13.83547,8.22679 -20.85456,16.55315 -18.75,22.15625 0.59785,1.59171 1.58508,2.33177 2.53125,1.96875 0.85575,-0.32836 2.42171,0.37428 3.46875,1.53125 2.10012,2.32066 1.62464,6.15874 -1.28125,10.59375 -3.65523,5.57866 -25.42183,16.17621 -42.90625,20.96875 -16.81244,4.60838 -22.23782,3.4616 -24.1875,-5.1875 -0.51728,-2.29472 -0.99291,-15.01626 -1.09375,-28.3125 -0.47897,-36.44342 -1.40417,-113.698865 -1.1875,-150.14562 l 49.78125,-12.610287 c 2.20844,-0.06297 2.50339,-15.437497 -0.4375,-15.4375 H 156.49357 V 4.1665734 c 8.92916,-3.63224999 25.80238,-12.090911 25.79929,-22.0000004 0.004,-13.21212 -21.1368,-23.968719 -34.89304,-23.96875 z m -0.1875,11.6875 c 6.48986,-1e-6 20.24019,5.26014 20.24019,11.75 0,6.489859 -13.75033,11.7500004 -20.24019,11.7500004 -6.48986,-1e-6 -20.24019,-5.2601404 -20.24019,-11.7500004 0,-6.48986 13.75033,-11.75 20.24019,-11.75 z"></path></g><circle style="fill:#ffffff;fill-opacity:1;fill-rule:evenodd;stroke:#ffffff;stroke-width:4.53094;stroke-miterlimit:4;stroke-dasharray:none;stroke-opacity:1" id="path10497-6" cx="147.97839" cy="-100.92799" r="3.5750146"></circle></g></g></svg> 